<svg width="70" height="34" viewBox="0 0 70 34" fill="none" xmlns="http://www.w3.org/2000/svg">
<g clip-path="url(#clip0_1388_3727)">
<path fill-rule="evenodd" clip-rule="evenodd" d="M12.0967 30.0889C12.6536 30.8117 13.2037 31.5346 13.7272 32.2844C13.8372 32.4424 15.0609 34.073 14.0306 33.4275C13.4898 33.0155 13.0025 32.5366 12.5802 32.0019C11.5799 30.9126 10.3662 29.4635 9.20591 28.8717C8.831 28.7133 8.41055 28.7037 8.02891 28.8448C7.25202 29.0331 6.89859 28.8785 6.4718 28.2161C6.16172 27.7286 5.99166 27.073 5.60821 26.6628C5.37481 26.414 5.3148 26.4308 4.84467 26.2728C4.54458 26.1719 4.26117 26.0139 4.35453 25.7852C4.44789 25.5566 4.9347 25.5432 5.35482 25.5331C6.05352 25.5254 6.74832 25.6391 7.40874 25.8693C9.23259 26.4678 10.9164 28.5792 12.0767 30.0889" fill="#2386EA"/>
<path fill-rule="evenodd" clip-rule="evenodd" d="M19.6157 4.23345C22.1964 3.24833 24.7738 2.29346 27.4079 1.43274C27.9647 1.24782 33.743 -0.833369 30.9689 1.5706C29.4718 2.86504 27.3446 3.67869 25.5641 4.53605C21.5196 6.48612 16.2614 8.73542 13.524 11.5966C12.7171 12.4439 12.5003 13.392 12.387 15.0227C12.2269 17.467 11.4634 18.3614 9.1727 19.0069C7.50556 19.4843 5.45164 19.3902 3.92454 20.14C2.99761 20.6006 2.99094 20.7889 2.11403 22.0261C1.55387 22.8129 0.846998 23.5055 0.270167 23.0348C-0.306665 22.5641 0.0967768 21.1217 0.450211 19.8508C1.05654 17.7964 2.00967 15.8628 3.26769 14.1351C6.62198 9.33389 14.2208 6.3012 19.6057 4.23345" fill="#2386EA"/>
<path fill-rule="evenodd" clip-rule="evenodd" d="M20.1925 22.8027C21.8596 23.4415 23.5001 24.0904 25.1305 24.82C25.464 24.9679 29.1317 26.454 26.7977 26.4204C25.5273 26.3968 24.1569 25.8723 22.9332 25.5193C20.1625 24.7191 16.6748 23.5356 14.1441 23.734C13.3972 23.7979 12.887 24.1576 12.1435 24.8973C11.0332 26.0068 10.283 26.1077 8.90924 25.4319C7.90895 24.9376 6.95535 24.013 5.90838 23.7172C5.26486 23.539 5.18151 23.6264 4.24124 23.8449C3.6344 23.9828 3.00421 24.013 2.92419 23.5356C2.84417 23.0582 3.6544 22.527 4.3646 22.0764C5.52616 21.35 6.80288 20.8303 8.13902 20.5399C11.8067 19.6725 16.7315 21.4847 20.2091 22.8094" fill="#2386EA"/>
<path fill-rule="evenodd" clip-rule="evenodd" d="M38.0776 10.4198H37.0973L37.0773 14.0443H34.5899V15.5808H37.0673L37.034 21.9421H40.7717L40.805 15.5808H43.0457V14.0443H40.8151L40.8351 10.4198H38.0776ZM46.7467 18.9127L46.7934 9.33049C46.7934 8.17726 46.2933 7.68975 45.0929 7.68975H34.6199V9.22963H42.6222C43.7626 9.22963 43.976 9.59611 43.9326 10.6249L43.8926 19.2153C43.8926 21.0948 44.7662 21.9421 46.8234 21.9421H49.5642V20.308H48.1905C47.1069 20.308 46.6867 20.1265 46.7434 18.9127H46.7467ZM39.0545 23.2197C38.2371 23.2325 37.4202 23.1706 36.6139 23.0348C34.7567 22.6717 33.743 21.8849 33.7564 20.4896L33.7997 12.1177H28.6482V13.6475H30.5721L30.5354 20.9737C30.202 21.7033 29.5718 22.1875 28.4849 22.1875L29.4851 24.9176C30.0594 24.8586 30.6082 24.6482 31.0764 24.3077C31.5446 23.9672 31.9158 23.5085 32.1526 22.9776C33.4196 24.8739 35.9803 24.9176 37.7542 24.9176H49.5809V23.2197H39.0579H39.0545ZM33.483 9.81465L33.653 9.57257C33.5663 9.44817 33.4229 9.33049 33.3396 9.20609C32.4059 8.38574 31.3418 7.7299 30.192 7.26611L28.895 9.26662C30.1003 9.72805 31.2438 10.3391 32.2993 11.0856L33.483 9.81465Z" fill="#2386EA"/>
<path fill-rule="evenodd" clip-rule="evenodd" d="M66.7224 13.9034V12.8207H63.4215V13.9034H66.7224ZM62.5079 9.23664H69.66V7.6665H51.2113V9.23664H58.4968V10.4706H50.7612L50.7312 16.072H53.0652L53.0819 11.9735H58.5068V16.3141H62.4712L62.4946 11.9768H66.9592C67.0561 11.9772 67.1518 11.9981 67.2402 12.0382C67.3286 12.0783 67.4075 12.1368 67.472 12.2097C67.5365 12.2827 67.585 12.3685 67.6144 12.4616C67.6438 12.5547 67.6535 12.653 67.6427 12.7501V16.0854H69.9767V11.8289C69.9916 11.6695 69.9752 11.5088 69.9283 11.3559C69.8813 11.2029 69.8049 11.0609 69.7033 10.9379C69.5917 10.7993 69.4523 10.686 69.2943 10.6055C69.1363 10.5249 68.9632 10.479 68.7864 10.4706H62.5012L62.5079 9.23664ZM63.4115 16.072H66.7124V14.9255H63.4115V16.072ZM56.2694 17.121H51.6381L51.5948 24.9246H69.2265V17.121H56.2694ZM58.5401 23.5696H54.659V21.8079H58.5401V23.5696ZM58.5568 20.3151H54.689V18.634H58.5701V20.0696L58.5568 20.3151ZM66.319 23.5696H62.4345V21.8079H66.309L66.319 23.5696ZM66.319 20.3151H62.4512V18.634H66.329L66.319 20.3151ZM57.5665 13.9269V12.8443H54.1055V13.9269H57.5665ZM54.0788 16.0955H57.5565V14.949H54.0955L54.0788 16.0955Z" fill="#2386EA"/>
<path d="M48.5005 26.2893L47.0401 28.0141L48.7872 30.2668H47.0001L45.9731 28.9219L44.8294 30.2668H44.0192L45.5863 28.4478L43.9192 26.2893H45.6864L46.6866 27.5434L47.7569 26.2759L48.5005 26.2893Z" fill="#2386EA"/>
<path d="M53.4719 26.2896V29.3155C53.4719 30.3477 53.3252 30.3477 51.408 30.3477C49.4908 30.3477 49.2974 30.3477 49.2974 29.3155V26.2896H50.8845V29.2853C50.8845 29.9106 50.9712 29.8232 51.8581 29.8232C52.585 29.8232 52.8384 29.8669 52.8384 29.5173V26.2896H53.4719Z" fill="#2386EA"/>
<path d="M58.4666 26.2896V30.267H57.393C57.3408 30.2693 57.2887 30.2614 57.2396 30.2435C57.1996 30.22 54.969 27.7487 54.969 27.7487V30.267H54.3555V26.2896H55.2724C55.3131 26.29 55.3532 26.3004 55.3891 26.3198L55.4358 26.3568L57.9098 29.0096V26.2896H58.4666Z" fill="#2386EA"/>
<path fill-rule="evenodd" clip-rule="evenodd" d="M67.0258 26.7771V26.2896H63.4248V29.6786C63.4244 29.7537 63.4386 29.8281 63.4667 29.8976C63.4948 29.9672 63.5361 30.0304 63.5885 30.0838C63.6408 30.1372 63.703 30.1797 63.7716 30.2088C63.8402 30.2379 63.9139 30.2531 63.9883 30.2536H67.0258V29.8131H65.4387C65.2753 29.8131 65.1553 29.8131 65.0686 29.6786C65.0368 29.5604 65.0267 29.4374 65.0386 29.3155V28.4649H66.7057V27.937H65.0386V26.7636L67.0258 26.7771Z" fill="#2386EA"/>
<path fill-rule="evenodd" clip-rule="evenodd" d="M67.7161 26.2896V30.267H69.0998H69.2265V30.1393V26.2896H67.7161Z" fill="#2386EA"/>
<path d="M61.491 29.8264C61.2709 29.8264 61.1576 29.7961 61.1042 29.6886C61.0702 29.5467 61.06 29.4001 61.0742 29.2548V26.2793H59.4637V29.5944C59.462 29.619 59.462 29.6438 59.4637 29.6684C59.4629 29.8194 59.5213 29.9646 59.6262 30.0724C59.7312 30.1801 59.8742 30.2415 60.0239 30.2433H63.0248V29.8298L61.491 29.8264Z" fill="#2386EA"/>
</g>
<defs>
<clipPath id="clip0_1388_3727">
<rect width="70" height="33.1579" fill="white" transform="translate(0 0.420898)"/>
</clipPath>
</defs>
</svg>
